HIERARCHY
ROOT Hips
{
  OFFSET -237.676 89.6478 1193.95
  CHANNELS 6 Xposition Yposition Zposition Zrotation Xrotation Yrotation
  JOINT Spine
  {
    OFFSET 3.69095e-05 8 3.09835e-05
    CHANNELS 6 Xposition Yposition Zposition Zrotation Xrotation Yrotation
    JOINT Spine1
    {
      OFFSET 0 7.99999 0.000107254
      CHANNELS 6 Xposition Yposition Zposition Zrotation Xrotation Yrotation
      JOINT Spine2
      {
        OFFSET 5.6646e-05 8.00001 0
        CHANNELS 6 Xposition Yposition Zposition Zrotation Xrotation Yrotation
        JOINT Spine3
        {
          OFFSET 0 8 0
          CHANNELS 6 Xposition Yposition Zposition Zrotation Xrotation Yrotation
          JOINT Neck
          {
            OFFSET -1.42514e-05 17 -1.40328e-05
            CHANNELS 6 Xposition Yposition Zposition Zrotation Xrotation Yrotation
            JOINT Head
            {
              OFFSET 7.15185e-05 10.8 7.64044e-05
              CHANNELS 6 Xposition Yposition Zposition Zrotation Xrotation Yrotation
              End Site
              {
                OFFSET 0 20.25 0
              }
            }
          }
          JOINT LeftShoulder
          {
            OFFSET 4.99998 17 0
            CHANNELS 6 Xposition Yposition Zposition Zrotation Xrotation Yrotation
            JOINT LeftShoulder2
            {
              OFFSET 6.45 0 0
              CHANNELS 6 Xposition Yposition Zposition Zrotation Xrotation Yrotation
              JOINT LeftArm
              {
                OFFSET 6.45 0 0
                CHANNELS 6 Xposition Yposition Zposition Zrotation Xrotation Yrotation
                JOINT LeftForeArm
                {
                  OFFSET 0 -32.4 -1.99998
                  CHANNELS 6 Xposition Yposition Zposition Zrotation Xrotation Yrotation
                  JOINT LeftHand
                  {
                    OFFSET 1.38715e-05 -25.65 1.99999
                    CHANNELS 6 Xposition Yposition Zposition Zrotation Xrotation Yrotation
                    JOINT LeftHandThumb1
                    {
                      OFFSET -0.50002 -1.49999 2.64994
                      CHANNELS 6 Xposition Yposition Zposition Zrotation Xrotation Yrotation
                      JOINT LeftHandThumb2
                      {
                        OFFSET -2.90681e-05 -3.80007 3.69998
                        CHANNELS 6 Xposition Yposition Zposition Zrotation Xrotation Yrotation
                        JOINT LeftHandThumb3
                        {
                          OFFSET 7.5306e-05 -3.00004 2.69995
                          CHANNELS 6 Xposition Yposition Zposition Zrotation Xrotation Yrotation
                          End Site
                          {
                            OFFSET -7.68702e-05 -2.30006 1.79994
                          }
                        }
                      }
                    }
                    JOINT LeftHandIndex
                    {
                      OFFSET -4.67658e-05 -1.90007 1.59998
                      CHANNELS 6 Xposition Yposition Zposition Zrotation Xrotation Yrotation
                      JOINT LeftHandIndex1
                      {
                        OFFSET -3.2856e-05 -8.30003 1.89992
                        CHANNELS 6 Xposition Yposition Zposition Zrotation Xrotation Yrotation
                        JOINT LeftHandIndex2
                        {
                          OFFSET 0.000128651 -4.49997 -9.13512e-05
                          CHANNELS 6 Xposition Yposition Zposition Zrotation Xrotation Yrotation
                          JOINT LeftHandIndex3
                          {
                            OFFSET 6.98497e-05 -3.4 -3.83811e-05
                            CHANNELS 6 Xposition Yposition Zposition Zrotation Xrotation Yrotation
                            End Site
                            {
                              OFFSET 3.87947e-05 -2.60007 3.38621e-05
                            }
                          }
                        }
                      }
                    }
                    JOINT LeftHandMiddle
                    {
                      OFFSET -0.249959 -2.20002 0.39997
                      CHANNELS 6 Xposition Yposition Zposition Zrotation Xrotation Yrotation
                      JOINT LeftHandMiddle1
                      {
                        OFFSET 0 -8.29992 0.999997
                        CHANNELS 6 Xposition Yposition Zposition Zrotation Xrotation Yrotation
                        JOINT LeftHandMiddle2
                        {
                          OFFSET 7.11891e-05 -4.65003 -0.000128721
                          CHANNELS 6 Xposition Yposition Zposition Zrotation Xrotation Yrotation
                          JOINT LeftHandMiddle3
                          {
                            OFFSET 4.60953e-05 -3.29997 -3.74239e-05
                            CHANNELS 6 Xposition Yposition Zposition Zrotation Xrotation Yrotation
                            End Site
                            {
                              OFFSET 5.12726e-05 -2.70002 9.97679e-05
                            }
                          }
                        }
                      }
                    }
                    JOINT LeftHandRing
                    {
                      OFFSET -0.500016 -2.14993 -0.799913
                      CHANNELS 6 Xposition Yposition Zposition Zrotation Xrotation Yrotation
                      JOINT LeftHandRing1
                      {
                        OFFSET 0 -7.75004 -0.20006
                        CHANNELS 6 Xposition Yposition Zposition Zrotation Xrotation Yrotation
                        JOINT LeftHandRing2
                        {
                          OFFSET 5.8515e-05 -3.80004 -4.40717e-05
                          CHANNELS 6 Xposition Yposition Zposition Zrotation Xrotation Yrotation
                          JOINT LeftHandRing3
                          {
                            OFFSET -4.56371e-05 -3.40002 0
                            CHANNELS 6 Xposition Yposition Zposition Zrotation Xrotation Yrotation
                            End Site
                            {
                              OFFSET -4.8471e-05 -2.59997 -9.56528e-05
                            }
                          }
                        }
                      }
                    }
                    JOINT LeftHandPinky
                    {
                      OFFSET -0.750091 -1.75003 -1.84994
                      CHANNELS 6 Xposition Yposition Zposition Zrotation Xrotation Yrotation
                      JOINT LeftHandPinky1
                      {
                        OFFSET 2.19466e-05 -7.15004 -0.999946
                        CHANNELS 6 Xposition Yposition Zposition Zrotation Xrotation Yrotation
                        JOINT LeftHandPinky2
                        {
                          OFFSET -5.76389e-05 -2.99999 1.99618e-05
                          CHANNELS 6 Xposition Yposition Zposition Zrotation Xrotation Yrotation
                          JOINT LeftHandPinky3
                          {
                            OFFSET 8.23451e-05 -2.34997 1.63301e-05
                            CHANNELS 6 Xposition Yposition Zposition Zrotation Xrotation Yrotation
                            End Site
                            {
                              OFFSET 0 -2.09996 -3.82095e-05
                            }
                          }
                        }
                      }
                    }
                  }
                }
              }
            }
          }
          JOINT RightShoulder
          {
            OFFSET -5.00002 17 0
            CHANNELS 6 Xposition Yposition Zposition Zrotation Xrotation Yrotation
            JOINT RightShoulder2
            {
              OFFSET -6.45 0 0
              CHANNELS 6 Xposition Yposition Zposition Zrotation Xrotation Yrotation
              JOINT RightArm
              {
                OFFSET -6.44998 0 1.43151e-05
                CHANNELS 6 Xposition Yposition Zposition Zrotation Xrotation Yrotation
                JOINT RightForeArm
                {
                  OFFSET -2.87427e-05 -32.4 -1.99997
                  CHANNELS 6 Xposition Yposition Zposition Zrotation Xrotation Yrotation
                  JOINT RightHand
                  {
                    OFFSET 9.43845e-05 -25.65 1.99999
                    CHANNELS 6 Xposition Yposition Zposition Zrotation Xrotation Yrotation
                    JOINT RightHandThumb1
                    {
                      OFFSET 0.500055 -1.5001 2.6501
                      CHANNELS 6 Xposition Yposition Zposition Zrotation Xrotation Yrotation
                      JOINT RightHandThumb2
                      {
                        OFFSET 4.05843e-05 -3.8 3.70002
                        CHANNELS 6 Xposition Yposition Zposition Zrotation Xrotation Yrotation
                        JOINT RightHandThumb3
                        {
                          OFFSET 2.64189e-05 -2.99992 2.70004
                          CHANNELS 6 Xposition Yposition Zposition Zrotation Xrotation Yrotation
                          End Site
                          {
                            OFFSET 2.76662e-05 -2.3 1.79998
                          }
                        }
                      }
                    }
                    JOINT RightHandIndex
                    {
                      OFFSET 5.87028e-05 -1.90008 1.60011
                      CHANNELS 6 Xposition Yposition Zposition Zrotation Xrotation Yrotation
                      JOINT RightHandIndex1
                      {
                        OFFSET 0.000104934 -8.29999 1.89994
                        CHANNELS 6 Xposition Yposition Zposition Zrotation Xrotation Yrotation
                        JOINT RightHandIndex2
                        {
                          OFFSET -6.11286e-05 -4.5 4.70578e-05
                          CHANNELS 6 Xposition Yposition Zposition Zrotation Xrotation Yrotation
                          JOINT RightHandIndex3
                          {
                            OFFSET 4.46665e-05 -3.39992 -6.05141e-05
                            CHANNELS 6 Xposition Yposition Zposition Zrotation Xrotation Yrotation
                            End Site
                            {
                              OFFSET 0.000120501 -2.60004 -0.000114663
                            }
                          }
                        }
                      }
                    }
                    JOINT RightHandMiddle
                    {
                      OFFSET 0.250032 -2.2 0.400022
                      CHANNELS 6 Xposition Yposition Zposition Zrotation Xrotation Yrotation
                      JOINT RightHandMiddle1
                      {
                        OFFSET 7.69816e-05 -8.29998 0.999918
                        CHANNELS 6 Xposition Yposition Zposition Zrotation Xrotation Yrotation
                        JOINT RightHandMiddle2
                        {
                          OFFSET -8.99545e-05 -4.64991 5.78574e-05
                          CHANNELS 6 Xposition Yposition Zposition Zrotation Xrotation Yrotation
                          JOINT RightHandMiddle3
                          {
                            OFFSET 0 -3.30004 -0.000100476
                            CHANNELS 6 Xposition Yposition Zposition Zrotation Xrotation Yrotation
                            End Site
                            {
                              OFFSET 8.85186e-05 -2.7 0.000173891
                            }
                          }
                        }
                      }
                    }
                    JOINT RightHandRing
                    {
                      OFFSET 0.499958 -2.14998 -0.799856
                      CHANNELS 6 Xposition Yposition Zposition Zrotation Xrotation Yrotation
                      JOINT RightHandRing1
                      {
                        OFFSET 1.48565e-05 -7.74993 -0.200023
                        CHANNELS 6 Xposition Yposition Zposition Zrotation Xrotation Yrotation
                        JOINT RightHandRing2
                        {
                          OFFSET 4.57344e-05 -3.79999 2.42644e-05
                          CHANNELS 6 Xposition Yposition Zposition Zrotation Xrotation Yrotation
                          JOINT RightHandRing3
                          {
                            OFFSET 2.84828e-05 -3.40007 8.43559e-05
                            CHANNELS 6 Xposition Yposition Zposition Zrotation Xrotation Yrotation
                            End Site
                            {
                              OFFSET 0 -2.60002 -5.27375e-05
                            }
                          }
                        }
                      }
                    }
                    JOINT RightHandPinky
                    {
                      OFFSET 0.750003 -1.74995 -1.85005
                      CHANNELS 6 Xposition Yposition Zposition Zrotation Xrotation Yrotation
                      JOINT RightHandPinky1
                      {
                        OFFSET 0 -7.15 -0.999947
                        CHANNELS 6 Xposition Yposition Zposition Zrotation Xrotation Yrotation
                        JOINT RightHandPinky2
                        {
                          OFFSET 1.37944e-05 -2.9999 -2.22668e-05
                          CHANNELS 6 Xposition Yposition Zposition Zrotation Xrotation Yrotation
                          JOINT RightHandPinky3
                          {
                            OFFSET -0.000112424 -2.35004 5.58338e-05
                            CHANNELS 6 Xposition Yposition Zposition Zrotation Xrotation Yrotation
                            End Site
                            {
                              OFFSET 0 -2.0999 -3.51428e-05
                            }
                          }
                        }
                      }
                    }
                  }
                }
              }
            }
          }
        }
      }
    }
  }
  JOINT LeftUpLeg
  {
    OFFSET 7.99998 0 0
    CHANNELS 6 Xposition Yposition Zposition Zrotation Xrotation Yrotation
    JOINT LeftLeg
    {
      OFFSET -1.26212e-05 -45 -1.00002
      CHANNELS 6 Xposition Yposition Zposition Zrotation Xrotation Yrotation
      JOINT LeftFoot
      {
        OFFSET 5.00764e-05 -41 -1.99998
        CHANNELS 6 Xposition Yposition Zposition Zrotation Xrotation Yrotation
        JOINT LeftToeBase
        {
          OFFSET -5.44951e-05 -7.5 12.4999
          CHANNELS 6 Xposition Yposition Zposition Zrotation Xrotation Yrotation
          JOINT LeftFootToe
          {
            OFFSET 0 0 4
            CHANNELS 6 Xposition Yposition Zposition Zrotation Xrotation Yrotation
            End Site
            {
              OFFSET 0 0 0
            }
          }
        }
      }
    }
  }
  JOINT RightUpLeg
  {
    OFFSET -7.99998 0 0
    CHANNELS 6 Xposition Yposition Zposition Zrotation Xrotation Yrotation
    JOINT RightLeg
    {
      OFFSET 3.58672e-05 -45.0001 -0.999869
      CHANNELS 6 Xposition Yposition Zposition Zrotation Xrotation Yrotation
      JOINT RightFoot
      {
        OFFSET 0.000125773 -41 -1.99992
        CHANNELS 6 Xposition Yposition Zposition Zrotation Xrotation Yrotation
        JOINT RightToeBase
        {
          OFFSET -0.000119424 -7.5 12.5
          CHANNELS 6 Xposition Yposition Zposition Zrotation Xrotation Yrotation
          JOINT RightFootToe
          {
            OFFSET 0 0 4
            CHANNELS 6 Xposition Yposition Zposition Zrotation Xrotation Yrotation
            End Site
            {
              OFFSET 0 0 0
            }
          }
        }
      }
    }
  }
}
MOTION
Frames:	3
Frame Time:	0.0111111
-237.676 89.6478 1193.95 1.28428 -5.29737 134.878 0 8 1.13687e-13 12.0604 21.5352 -1.8589 2.27374e-13 8 1.13687e-13 -2.82777 6.79567 4.06901 -1.13687e-13 8 -1.13687e-13 -1.35283 3.42758 1.99157 0 8 0 -1.34868 3.41987 1.98468 0 17 1.13687e-13 -0.585767 0.660271 0.734885 2.27374e-13 10.8 -1.13687e-13 -1.37995 1.52814 1.72559 5 17 0 -17.6656 -1.83874 -2.75778 6.45 -1.13687e-13 0 0.348348 -0.701464 4.96193 6.45 -1.13687e-13 0 34.0504 17.0657 24.5621 2.84217e-14 -32.4 -2 15.273 -41.8395 -16.2791 1.13687e-13 -25.65 2 -119.757 -62.6799 -121.422 -0.5 -1.5 2.65 51.6553 -12.8538 -131.586 0 -3.8 3.7 -0.106582 -0.886573 0.00657708 -1.13687e-13 -3 2.7 -0.0317307 36.4519 0.00125954 0 -1.9 1.6 1.84775e-06 -3.35263e-06 -2.94469e-06 0 -8.3 1.9 -44.5923 20.962 9.47323 -2.27374e-13 -4.5 0 -34.79 -0.000615244 0.000893007 0 -3.4 -2.27374e-13 -24.9533 -0.000270588 0.00130879 -0.25 -2.2 0.4 1.84775e-06 -3.35263e-06 -2.94469e-06 0 -8.3 1 -26.4363 12.4895 3.50597 -2.27374e-13 -4.65 0 -68.9785 -0.0406743 0.00179326 0 -3.3 0 -90.0002 2.3892e-07 -2.55615e-06 -0.5 -2.15 -0.8 1.84775e-06 -3.35263e-06 -2.94469e-06 -1.13687e-13 -7.75 -0.2 -15.6606 19.4151 3.4014 0 -3.8 0 -68.9323 -0.00807703 -0.0101046 -1.13687e-13 -3.4 1.13687e-13 -90.0044 0.0163549 -0.617845 -0.75 -1.75 -1.85 1.84775e-06 -3.35263e-06 -2.94469e-06 0 -7.15 -1 -5.03904 18.5573 1.53717 -3.41061e-13 -3 2.84217e-14 -65.0945 -0.0435874 0.00175927 1.13687e-13 -2.35 -8.52651e-14 -47.2593 -0.0285859 -0.0238943 -5 17 0 -0.825692 1.59326 1.24575 -6.45 -2.27374e-13 -1.13687e-13 -1.54907 -0.339649 -0.81111 -6.45 0 0 -55.2587 -10.1416 11.6837 -5.68434e-14 -32.4 -2 52.9179 -56.7107 40.6652 1.13687e-13 -25.65 2 -7.04007 -0.253885 8.44041 0.5 -1.5 2.65 -13.3804 21.3692 -84.4189 4.54747e-13 -3.8 3.7 0.726018 10.3985 -0.0154245 0 -3 2.7 -0.0693747 57.3011 -0.0172007 1.13687e-13 -1.9 1.6 -2.49538e-06 -1.22826e-06 1.99572e-06 -1.13687e-13 -8.3 1.9 15.6971 4.35902 -0.696714 0 -4.5 -2.27374e-13 5.11212 20.1069 10.0462 1.13687e-13 -3.4 -3.41061e-13 40.4939 -0.0167764 -0.011147 0.25 -2.2 0.4 -2.49538e-06 -1.22826e-06 1.99572e-06 0 -8.3 1 30.1865 0.314934 -0.97809 -1.13687e-13 -4.65 -1.13687e-13 0.832555 14.7587 11.8405 2.27374e-13 -3.3 0 63.0421 -0.0083178 0.00304511 0.5 -2.15 -0.8 -2.49538e-06 -1.22826e-06 1.99572e-06 0 -7.75 -0.2 44.7941 -6.61369 0.337544 2.27374e-13 -3.8 -1.13687e-13 3.65973 18.9834 10.7784 -1.13687e-13 -3.4 -2.27374e-13 44.3413 -0.0091199 -0.00992151 0.75 -1.75 -1.85 -2.49538e-06 -1.22826e-06 1.99572e-06 0 -7.15 -1 42.7933 -9.42195 1.20556 -1.13687e-13 -3 0 2.91862 20.6075 13.8924 1.13687e-13 -2.35 1.13687e-13 52.6558 0.00526503 0.00901342 8 -1.42109e-14 0 -2.54174 -23.6234 -17.4361 1.13687e-13 -45 -1 17.854 17.5478 -6.61071 0 -41 -2 -16.2441 3.23719 25.3429 1.13687e-13 -7.5 12.5 6.60294e-08 -6.76454e-08 -6.94633e-12 -1.13687e-13 2.77556e-17 4 9.00325 -11.1793 54.2855 -8 0 1.13687e-13 -11.6058 0.0802413 8.1262 0 -45 -1 27.9365 -5.63614 -7.39533 -1.13687e-13 -41 -2 -12.1117 -1.19036 8.11903 -1.13687e-13 -7.5 12.5 0.00197863 0.0360035 8.20478e-05 0 0 4 -1.71494 11.5947 12.9253 
-237.791 89.6259 1193.62 1.00741 -5.4755 134.077 -1.13687e-13 8 0 11.8541 21.7806 -1.88775 1.13687e-13 8 1.13687e-13 -2.8517 6.81092 4.01412 0 8 0 -1.36548 3.43508 1.96372 2.27374e-13 8 1.13687e-13 -1.3637 3.42149 1.96419 -1.13687e-13 17 1.13687e-13 -0.637898 0.636318 0.919217 1.13687e-13 10.8 0 -1.50468 1.46698 2.15626 5 17 1.13687e-13 -17.6675 -1.93176 -2.71394 6.45 -1.13687e-13 1.13687e-13 0.32047 -0.693797 4.96192 6.45 0 0 32.7753 18.2474 25.1503 0 -32.4 -2 16.4589 -42.6409 -14.9482 0 -25.65 2 -120.412 -62.8425 -122.428 -0.5 -1.5 2.65 52.4853 -12.8944 -130.467 2.27374e-13 -3.8 3.7 -0.106582 -0.886573 0.00657708 0 -3 2.7 0.0120726 33.9194 0.0801614 -1.13687e-13 -1.9 1.6 1.84775e-06 -3.35263e-06 -2.94469e-06 0 -8.3 1.9 -41.7816 20.1167 8.42662 0 -4.5 0 -35.6957 0.0410038 -0.0357501 0 -3.4 -5.68434e-14 -25.5101 0.0326713 -0.0072911 -0.25 -2.2 0.4 1.84775e-06 -3.35263e-06 -2.94469e-06 0 -8.3 1 -24.8909 11.325 3.0336 -2.27374e-13 -4.65 0 -65.2375 -0.168035 -0.00121588 -1.13687e-13 -3.3 0 -90.6889 0.0357553 0.0138901 -0.5 -2.15 -0.8 1.84775e-06 -3.35263e-06 -2.94469e-06 -1.13687e-13 -7.75 -0.2 -14.4521 18.7075 3.0427 0 -3.8 0 -65.7777 -0.0782169 -0.0204526 -2.27374e-13 -3.4 0 -90.0044 0.0163549 -0.617845 -0.75 -1.75 -1.85 1.84775e-06 -3.35263e-06 -2.94469e-06 0 -7.15 -1 -4.6648 17.8514 1.39699 0 -3 5.68434e-14 -59.1042 -0.165003 -0.0130539 0 -2.35 0 -42.9792 -0.101907 -0.0798772 -5 17 -1.13687e-13 -0.890806 1.46106 1.27577 -6.45 -1.13687e-13 -1.13687e-13 -1.53027 -0.360016 -0.842584 -6.45 0 1.13687e-13 -55.211 -10.6804 11.0386 0 -32.4 -2 52.984 -57.0401 41.2246 0 -25.65 2 -7.9124 -0.592182 8.466 0.5 -1.5 2.65 -12.244 22.0479 -83.5084 2.27374e-13 -3.8 3.7 0.726153 10.8921 -0.0154495 2.27374e-13 -3 2.7 -0.0693747 57.3011 -0.0172007 1.13687e-13 -1.9 1.6 -2.49538e-06 -1.22826e-06 1.99572e-06 0 -8.3 1.9 15.448 4.37497 -0.691365 0 -4.5 -2.27374e-13 5.17319 19.8518 9.70522 0 -3.4 -1.13687e-13 39.7108 -0.0127009 -0.00946455 0.25 -2.2 0.4 -2.49538e-06 -1.22826e-06 1.99572e-06 0 -8.3 1 29.8573 0.409643 -0.995461 -1.13687e-13 -4.65 0 0.855435 14.7369 11.7468 1.13687e-13 -3.3 0 62.5486 -0.0083178 0.0120776 0.5 -2.15 -0.8 -2.49538e-06 -1.22826e-06 1.99572e-06 0 -7.75 -0.2 44.3472 -6.49645 0.293803 0 -3.8 0 3.65815 18.9748 10.7775 -1.13687e-13 -3.4 -3.41061e-13 44.3482 -0.0091199 0.00578755 0.75 -1.75 -1.85 -2.49538e-06 -1.22826e-06 1.99572e-06 0 -7.15 -1 42.5849 -9.28626 1.15242 0 -3 0 2.97907 20.5174 13.6874 -1.13687e-13 -2.35 0 52.0648 0.00626354 0.0186487 8 0 0 -2.69846 -23.8988 -17.7041 -1.13687e-13 -45 -1 17.9909 18.2084 -6.66343 0 -41 -2 -16.2697 2.64979 25.2089 -2.27374e-13 -7.5 12.5 6.60294e-08 -6.76454e-08 -6.94951e-12 -1.13687e-13 0 4 8.90407 -10.9249 55.0936 -8 0 0 -11.8725 -0.163057 7.84743 0 -45 -1 28.0256 -5.57899 -7.41617 0 -41 -2 -11.9424 -1.20397 8.63993 0 -7.5 12.5 0.00197863 0.0360035 8.20478e-05 0 0 4 -1.61255 11.7071 12.7374 
-237.907 89.6041 1193.3 0.724605 -5.64551 133.274 0 8 2.27374e-13 11.648 22.026 -1.91673 1.13687e-13 8 1.13687e-13 -2.8756 6.82617 3.95923 0 8 -1.13687e-13 -1.37812 3.44257 1.93586 0 8 0 -1.37563 3.43108 1.93509 0 17 2.27374e-13 -0.689875 0.61236 1.10355 2.27374e-13 10.8 0 -1.6285 1.40577 2.58691 5 17 2.27374e-13 -17.6694 -2.02478 -2.6701 6.45 -1.13687e-13 0 0.283504 -0.681497 4.9594 6.45 0 0 31.4739 19.418 25.758 -2.84217e-14 -32.4 -2 17.6918 -43.4308 -13.5856 0 -25.65 2 -121.077 -62.9963 -123.448 -0.5 -1.5 2.65 53.3213 -12.9179 -129.35 2.27374e-13 -3.8 3.7 -0.106582 -0.886573 0.00657708 -1.13687e-13 -3 2.7 0.0640442 31.3868 0.154657 -1.13687e-13 -1.9 1.6 1.84775e-06 -3.35263e-06 -2.94469e-06 0 -8.3 1.9 -39.0045 19.2611 7.39317 0 -4.5 5.68434e-14 -36.6014 0.0826227 -0.0723933 0 -3.4 -1.13687e-13 -26.0669 0.0656132 -0.015891 -0.25 -2.2 0.4 1.84775e-06 -3.35263e-06 -2.94469e-06 1.13687e-13 -8.3 1 -23.3649 10.1588 2.56631 -4.54747e-13 -4.65 0 -61.4965 -0.295396 -0.00422507 -2.27374e-13 -3.3 0 -91.3777 0.0715104 0.0277828 -0.5 -2.15 -0.8 1.84775e-06 -3.35263e-06 -2.94469e-06 -1.13687e-13 -7.75 -0.2 -13.253 17.9987 2.68745 0 -3.8 5.68434e-14 -62.6231 -0.148357 -0.0308005 -2.27374e-13 -3.4 5.68434e-14 -90.0044 0.0163549 -0.617845 -0.75 -1.75 -1.85 1.84775e-06 -3.35263e-06 -2.94469e-06 -1.13687e-13 -7.15 -1 -4.29419 17.1454 1.25813 0 -3 0 -53.1139 -0.286419 -0.0278673 2.27374e-13 -2.35 0 -38.6993 -0.175228 -0.13586 -5 17 0 -0.955782 1.32886 1.30579 -6.45 -2.27374e-13 -2.27374e-13 -1.51463 -0.375833 -0.906949 -6.45 0 1.13687e-13 -55.1753 -11.2201 10.3922 5.68434e-14 -32.4 -2 53.0621 -57.366 41.7956 0 -25.65 2 -8.78442 -0.930434 8.49189 0.5 -1.5 2.65 -11.1271 22.6916 -82.5463 0 -3.8 3.7 0.726289 11.3858 -0.0154757 0 -3 2.7 -0.0693747 57.3011 -0.0172007 1.13687e-13 -1.9 1.6 -2.49538e-06 -1.22826e-06 1.99572e-06 0 -8.3 1.9 15.199 4.39092 -0.686017 1.13687e-13 -4.5 0 5.23093 19.5957 9.36553 -1.13687e-13 -3.4 -1.13687e-13 38.9277 -0.00862538 -0.00778213 0.25 -2.2 0.4 -2.49538e-06 -1.22826e-06 1.99572e-06 0 -8.3 1 29.5281 0.504351 -1.01284 -1.13687e-13 -4.65 0 0.878233 14.7151 11.6532 0 -3.3 0 62.0552 -0.0083178 0.0211102 0.5 -2.15 -0.8 -2.49538e-06 -1.22826e-06 1.99572e-06 1.13687e-13 -7.75 -0.2 43.9006 -6.3792 0.250084 2.27374e-13 -3.8 0 3.65656 18.9662 10.7766 0 -3.4 -2.27374e-13 44.3551 -0.00911989 0.0214966 0.75 -1.75 -1.85 -2.49538e-06 -1.22826e-06 1.99572e-06 0 -7.15 -1 42.3767 -9.15055 1.09932 0 -3 2.27374e-13 3.03879 20.4268 13.4826 1.13687e-13 -2.35 1.13687e-13 51.4739 0.00726206 0.028284 8 -1.42109e-14 -1.13687e-13 -2.85809 -24.173 -17.9735 1.13687e-13 -45 -1 18.1291 18.8688 -6.71745 0 -41 -2 -16.298 2.06116 25.0778 0 -7.5 12.5 6.60294e-08 -6.76454e-08 -6.95905e-12 -1.13687e-13 2.77556e-17 4 8.8078 -10.6679 55.9551 -8 2.84217e-14 1.13687e-13 -12.1416 -0.406677 7.56879 1.13687e-13 -45 -1 28.1147 -5.52185 -7.43701 0 -41 -2 -11.7728 -1.21743 9.16083 0 -7.5 12.5 0.00197863 0.0360035 8.20478e-05 1.13687e-13 -1.11022e-16 4 -1.55087 11.8054 12.6692 
